<svg width="40" height="40" viewBox="0 0 40 40" fill="none" xmlns="http://www.w3.org/2000/svg">
<path d="M20.662 5.40087C20.6971 5.42039 20.7401 5.42039 20.7791 5.42039C21.0093 5.42429 21.2435 5.43209 21.4738 5.4438C21.9187 5.46722 22.3636 5.50235 22.8085 5.54918C23.2964 5.59601 23.7842 5.66236 24.2682 5.73651C25.4585 5.92385 26.6333 6.19314 27.7846 6.5483C29.1389 6.9659 30.4463 7.50058 31.703 8.16015C32.8348 8.75728 33.9003 9.44808 34.8916 10.256C35.36 10.6384 35.8127 11.0404 36.2342 11.4736C37.3036 12.5664 38.2051 13.7802 38.8725 15.1657C39.3759 16.2116 39.7194 17.3044 39.8833 18.4558C39.9419 18.8499 39.9731 19.248 39.9887 19.6461C40.0433 20.9457 39.8443 22.2142 39.4423 23.4474C38.9974 24.8017 38.3183 26.0272 37.4519 27.1551C37.1592 27.5376 36.8469 27.9044 36.5152 28.2557C35.6527 29.1807 34.6887 29.9807 33.6505 30.691C32.6124 31.4053 31.5079 32.0024 30.3566 32.5137C29.0452 33.0952 27.687 33.5479 26.2937 33.8835C25.3766 34.106 24.4516 34.2777 23.5188 34.3909C22.9881 34.4573 22.4573 34.5119 21.9265 34.547C21.5401 34.5704 21.1577 34.586 20.7713 34.6017C20.4005 34.6173 20.0258 34.6212 19.6551 34.6134C19.1516 34.6017 18.6482 34.586 18.1486 34.547C17.5398 34.5041 16.9387 34.4416 16.3338 34.3597C15.5766 34.2582 14.8312 34.1216 14.0858 33.9499C12.79 33.6572 11.5255 33.2591 10.2922 32.7556C8.89895 32.1858 7.57199 31.4833 6.3309 30.6286C5.6362 30.1486 4.97663 29.6217 4.35218 29.048C3.45844 28.2206 2.66617 27.3034 1.99879 26.2848C1.26506 25.1608 0.718666 23.9548 0.39083 22.6513C0.250329 22.0971 0.156663 21.539 0.10983 20.9692C0.0786071 20.5984 0.059092 20.2276 0.0629948 19.853C0.0825088 18.8187 0.242524 17.804 0.54304 16.8166C0.730374 16.2077 0.960641 15.6184 1.24555 15.0486C1.72949 14.0768 2.33053 13.1792 3.02913 12.3479C3.34916 11.9693 3.6848 11.6063 4.03995 11.2629C4.69562 10.6228 5.40203 10.0413 6.15137 9.51052C7.1622 8.79241 8.23547 8.18747 9.35557 7.6645C10.5811 7.09469 11.8495 6.64196 13.1569 6.29071C13.9453 6.07996 14.7375 5.90433 15.5415 5.77164C16.1894 5.66236 16.8412 5.5765 17.4929 5.51796C18.0822 5.46722 18.6716 5.42039 19.2609 5.41258C19.2999 5.41258 19.3389 5.41258 19.378 5.39307C19.8034 5.40087 20.2327 5.40087 20.662 5.40087ZM16.5445 25.2076C16.5758 25.2076 16.607 25.2076 16.6343 25.2076C18.8316 25.2076 21.0328 25.2076 23.23 25.2115C23.3393 25.2115 23.4018 25.1764 23.4525 25.0749C23.7881 24.388 24.1277 23.7011 24.4711 23.0142C25.0722 21.8044 25.6693 20.5984 26.2703 19.3885C26.8362 18.2528 27.3982 17.1132 27.9641 15.9775C28.6823 14.5334 29.4004 13.0933 30.1146 11.6454C30.1692 11.5361 30.2356 11.4931 30.3566 11.4931C30.8249 11.4971 31.2932 11.4971 31.7616 11.4971C32.2494 11.4971 32.7334 11.4971 33.2212 11.4971C33.2642 11.4971 33.3149 11.5127 33.3578 11.4697C33.3344 11.4268 33.2993 11.3956 33.272 11.3683C33.1276 11.2278 32.9832 11.0873 32.8309 10.9546C32.2806 10.4589 31.6952 10.0062 31.0825 9.59248C30.2005 8.99926 29.2716 8.49189 28.2998 8.06258C27.0197 7.49668 25.6966 7.08298 24.3267 6.79808C23.4408 6.61465 22.551 6.49366 21.6494 6.42341C21.0757 6.38048 20.5059 6.37267 19.9322 6.35706C19.8151 6.35316 19.698 6.37267 19.577 6.37267C19.175 6.37657 18.773 6.39609 18.3711 6.42731C17.7427 6.47414 17.1143 6.5483 16.4938 6.64977C15.4713 6.81759 14.4682 7.05956 13.4847 7.3835C12.1851 7.8089 10.944 8.3631 9.76927 9.0617C8.80138 9.63542 7.89592 10.295 7.07243 11.056C6.59629 11.4971 6.14356 11.9615 5.72987 12.461C5.10542 13.2143 4.56683 14.0183 4.12581 14.8886C3.81359 15.5091 3.55601 16.1492 3.36086 16.8127C3.07596 17.7767 2.92765 18.7602 2.90814 19.7632C2.90424 20.013 2.91204 20.2628 2.92765 20.5125C2.94717 20.9028 2.9862 21.2892 3.04864 21.6756C3.23207 22.8074 3.58723 23.8846 4.09849 24.911C4.47707 25.672 4.9376 26.3902 5.46057 27.0614C5.4996 27.1122 5.53473 27.1707 5.58937 27.2097C5.6401 27.1746 5.65571 27.1239 5.67523 27.077C6.1943 26.0311 6.71338 24.9812 7.23245 23.9353C7.81397 22.7644 8.39548 21.5897 8.977 20.4189C9.54291 19.2831 10.1049 18.1435 10.6708 17.0078C11.5607 15.2203 12.4505 13.4328 13.3325 11.6415C13.3911 11.5244 13.4613 11.4892 13.5862 11.4892C15.842 11.4931 18.0979 11.4931 20.3537 11.4931C20.5332 11.4931 20.5371 11.4932 20.4747 11.6688C20.26 12.2659 20.0375 12.8591 19.7956 13.4485C19.3741 14.4749 18.9096 15.4779 18.3906 16.4575C17.8247 17.523 17.2002 18.5494 16.5055 19.5368C15.8615 20.4462 15.1629 21.3087 14.3941 22.1166C13.8243 22.7176 13.2193 23.2835 12.5793 23.8065C11.5568 24.6417 10.464 25.3637 9.27361 25.9374C8.61794 26.2536 7.94276 26.5189 7.23635 26.7063C7.18561 26.718 7.13488 26.7375 7.08414 26.7531C7.08414 26.757 7.08804 26.7648 7.08804 26.7687C7.12317 26.7687 7.15829 26.7687 7.19342 26.7687C9.62877 26.7687 12.0641 26.7687 14.4995 26.7726C14.6166 26.7726 14.679 26.7375 14.7336 26.6321C15.1668 25.7462 15.6079 24.8642 16.0489 23.986C17.5046 21.0706 18.9604 18.1552 20.4161 15.2437C20.6542 14.7676 20.8923 14.2876 21.1303 13.8075C21.4933 13.0738 21.8602 12.3401 22.2231 11.6063C22.2582 11.5361 22.3051 11.4971 22.387 11.501C22.4222 11.5049 22.4573 11.501 22.4924 11.501C24.4867 11.501 26.4772 11.501 28.4715 11.501C28.4988 11.501 28.5222 11.501 28.5496 11.501C28.6862 11.5049 28.6979 11.5205 28.6549 11.6454C28.5964 11.8132 28.534 11.9849 28.4715 12.1527C27.9876 13.4446 27.4373 14.7091 26.7855 15.9267C26.2898 16.8556 25.7474 17.7532 25.1424 18.6158C24.5609 19.4393 23.9286 20.2237 23.2378 20.9575C22.8554 21.3672 22.4495 21.7536 22.028 22.1244C21.5167 22.5732 20.9859 22.9908 20.4239 23.3772C19.7565 23.8338 19.0618 24.2358 18.3242 24.5714C17.7427 24.8212 17.1573 25.0398 16.5445 25.2076ZM6.84997 28.564C6.84997 28.6187 6.889 28.6382 6.91632 28.6616C7.01389 28.7553 7.11536 28.845 7.21684 28.9387C7.70859 29.3875 8.23547 29.7934 8.78576 30.172C9.65999 30.7769 10.585 31.2921 11.5529 31.7292C12.911 32.3458 14.3238 32.7908 15.7835 33.0874C16.5211 33.2357 17.2666 33.3449 18.0159 33.4113C18.6521 33.4698 19.2921 33.5011 19.9283 33.505C20.178 33.5089 20.4278 33.4972 20.6776 33.4894C21.2201 33.4737 21.7626 33.4347 22.3012 33.3801C22.8866 33.3215 23.4642 33.2357 24.0418 33.1225C25.1541 32.9078 26.2391 32.6073 27.3007 32.2131C28.5222 31.7565 29.6892 31.1828 30.7859 30.4725C31.9021 29.7505 32.9207 28.9192 33.8223 27.9396C34.3023 27.4166 34.7472 26.8624 35.1414 26.2731C35.7893 25.2974 36.2966 24.2553 36.6401 23.1313C36.9133 22.2376 37.0694 21.3243 37.1084 20.3954C37.1396 19.65 37.0967 18.9085 36.9757 18.1708C36.7064 16.5395 36.0937 15.0447 35.1882 13.6631C35.1726 13.6397 35.1609 13.6046 35.1258 13.6046C35.0946 13.6202 35.0907 13.6514 35.0751 13.6787C34.8253 14.2368 34.5677 14.7949 34.2828 15.3374C33.6622 16.5278 32.9519 17.6635 32.1245 18.7211C31.4689 19.5602 30.7507 20.3447 29.9468 21.0472C29.2326 21.6756 28.4676 22.2415 27.6402 22.7137C26.8714 23.1508 26.0752 23.5177 25.2205 23.748C25.201 23.7519 25.1697 23.748 25.1619 23.7909C25.2205 23.7909 25.2712 23.7909 25.3219 23.7909C27.1992 23.7909 29.0803 23.7909 30.9576 23.7909C31.0005 23.7909 31.0435 23.7909 31.0903 23.7909C31.184 23.7987 31.1957 23.8182 31.1566 23.908C31.1488 23.9275 31.1371 23.947 31.1293 23.9665C30.9498 24.3412 30.7625 24.7119 30.5868 25.0905C30.5361 25.1959 30.4776 25.2544 30.3566 25.2349C30.3175 25.231 30.2785 25.2349 30.2395 25.2349C28.132 25.2349 26.0284 25.2349 23.9208 25.2349C23.792 25.2349 23.6672 25.2388 23.5384 25.2349C23.4369 25.231 23.3783 25.2622 23.3315 25.3598C23.1325 25.7813 22.9295 26.195 22.7305 26.6165C22.6212 26.8429 22.6407 26.8156 22.4183 26.8156C19.9088 26.8156 17.3993 26.8156 14.8897 26.8156C14.8468 26.8156 14.8039 26.8195 14.7571 26.8156C14.6829 26.8117 14.6361 26.839 14.6048 26.9092C14.3785 27.3854 14.1482 27.8576 13.9219 28.3298C13.8048 28.5718 13.8282 28.5484 13.5784 28.5484C11.3889 28.5484 9.19946 28.5484 7.00999 28.5484C6.95925 28.5484 6.90461 28.5367 6.84997 28.564Z" fill="black"/>
</svg>
