<svg width="30" height="30" viewBox="0 0 30 30" fill="none" xmlns="http://www.w3.org/2000/svg">
<path d="M15.9814 6.74819V1.88257C8.31687 2.12632 2.12609 8.3171 1.88281 15.9812H6.74844C6.98703 10.9979 10.9981 6.98679 15.9814 6.74819Z" fill="#D0D0D0"/>
<path d="M16.4464 10.2061C13.0034 10.2061 10.2031 13.0068 10.2031 16.4493C10.2031 19.8918 13.0039 22.6926 16.4464 22.6926C19.8889 22.6926 22.6897 19.8918 22.6897 16.4493C22.6897 13.0068 19.8889 10.2061 16.4464 10.2061ZM16.4511 11.4154H16.4558C16.715 11.4154 16.9245 11.625 16.9245 11.8842C16.9245 12.1434 16.715 12.3529 16.4558 12.3529C16.1966 12.3529 15.9847 12.1434 15.9847 11.8842C15.9847 11.625 16.1923 11.4154 16.4511 11.4154ZM13.2228 12.7528H13.2275C13.4867 12.7528 13.6962 12.9623 13.6962 13.2215C13.6962 13.4807 13.4867 13.6903 13.2275 13.6903C12.9683 13.6903 12.7564 13.4807 12.7564 13.2215C12.7564 12.9623 12.9641 12.7528 13.2228 12.7528ZM11.8902 16.9186C11.6314 16.9186 11.4191 16.709 11.4191 16.4498C11.4191 16.1906 11.6267 15.9811 11.8855 15.9811H11.8902C12.1494 15.9811 12.3589 16.1906 12.3589 16.4498C12.3589 16.709 12.1494 16.9186 11.8902 16.9186ZM13.2275 20.1468C12.9687 20.1468 12.7564 19.9373 12.7564 19.6781C12.7564 19.4189 12.9641 19.2093 13.2228 19.2093H13.2275C13.4867 19.2093 13.6962 19.4189 13.6962 19.6781C13.6962 19.9373 13.4867 20.1468 13.2275 20.1468ZM16.4558 21.4842C16.197 21.4842 15.9847 21.2746 15.9847 21.0154C15.9847 20.7562 16.1923 20.5467 16.4511 20.5467H16.4558C16.715 20.5467 16.9245 20.7562 16.9245 21.0154C16.9245 21.2746 16.715 21.4842 16.4558 21.4842ZM16.4464 19.4854C14.773 19.4854 13.4112 18.1237 13.4112 16.4498C13.4112 14.7759 14.7725 13.4146 16.4464 13.4146C18.1203 13.4146 19.482 14.7759 19.482 16.4498C19.482 18.1237 18.1203 19.4854 16.4464 19.4854ZM19.6836 20.1468C19.4248 20.1468 19.2125 19.9373 19.2125 19.6781C19.2125 19.4189 19.4202 19.2093 19.6789 19.2093H19.6836C19.9428 19.2093 20.1523 19.4189 20.1523 19.6781C20.1523 19.9373 19.9428 20.1468 19.6836 20.1468ZM19.6836 13.6907C19.4248 13.6907 19.2125 13.4812 19.2125 13.222C19.2125 12.9628 19.4202 12.7532 19.6789 12.7532H19.6836C19.9428 12.7532 20.1523 12.9628 20.1523 13.222C20.1523 13.4812 19.9428 13.6907 19.6836 13.6907ZM21.0209 15.9815C21.2802 15.9815 21.4897 16.1911 21.4897 16.4503C21.4897 16.7095 21.2802 16.919 21.0209 16.919C20.7617 16.919 20.5498 16.7095 20.5498 16.4503C20.5498 16.1911 20.7575 15.9815 21.0162 15.9815H21.0209Z" fill="#D0D0D0"/>
<path d="M16.9212 4.78638V7.2056C16.9212 7.46481 16.7117 7.67435 16.4525 7.67435C11.6141 7.67435 7.67703 11.6109 7.67703 16.4498C7.67703 16.709 7.4675 16.9186 7.20828 16.9186H4.78906C5.03609 23.1398 10.1717 28.125 16.4525 28.125C22.8903 28.125 28.1277 22.8876 28.1277 16.4498C28.1277 10.169 23.1425 5.03388 16.9212 4.78638ZM10.6156 23.5668H8.99281C8.73359 23.5668 8.52406 23.3573 8.52406 23.0981C8.52406 22.8389 8.73359 22.6293 8.99281 22.6293H10.6156C10.8748 22.6293 11.0844 22.8389 11.0844 23.0981C11.0844 23.3573 10.8748 23.5668 10.6156 23.5668ZM17.3581 25.6092L16.2106 26.7567C16.1192 26.8481 15.9992 26.894 15.8792 26.894C15.7592 26.894 15.6392 26.8481 15.5478 26.7567C15.3645 26.5734 15.3645 26.2772 15.5478 26.0939L16.6953 24.9464C16.8786 24.7631 17.1748 24.7631 17.3581 24.9464C17.5414 25.1297 17.5414 25.4259 17.3581 25.6092ZM23.57 23.909C23.57 24.1683 23.3605 24.3778 23.1013 24.3778C22.842 24.3778 22.6325 24.1683 22.6325 23.909V22.2862C22.6325 22.027 22.842 21.8175 23.1013 21.8175C23.3605 21.8175 23.57 22.027 23.57 22.2862V23.909ZM16.4525 23.6301C12.493 23.6301 9.27172 20.4089 9.27172 16.4493C9.27172 12.4898 12.493 9.26856 16.4525 9.26856C20.412 9.26856 23.6333 12.4898 23.6333 16.4493C23.6333 20.4089 20.412 23.6301 16.4525 23.6301ZM23.9122 10.2698H22.2894C22.0302 10.2698 21.8206 10.0603 21.8206 9.80106C21.8206 9.54185 22.0302 9.33231 22.2894 9.33231H23.9122C24.1714 9.33231 24.3809 9.54185 24.3809 9.80106C24.3809 10.0603 24.1714 10.2698 23.9122 10.2698ZM25.6123 15.5442L26.7598 16.6917C26.9431 16.875 26.9431 17.1712 26.7598 17.3545C26.6684 17.4459 26.5484 17.4918 26.4284 17.4918C26.3084 17.4918 26.1884 17.4459 26.097 17.3545L24.9495 16.207C24.7663 16.0237 24.7663 15.7275 24.9495 15.5442C25.1328 15.3609 25.4291 15.3609 25.6123 15.5442Z" fill="#D0D0D0"/>
<path d="M16.4492 14.3523C15.2923 14.3523 14.3516 15.2931 14.3516 16.45C14.3516 17.6068 15.2923 18.5481 16.4492 18.5481C17.6061 18.5481 18.5473 17.6068 18.5473 16.45C18.5473 15.2931 17.6061 14.3523 16.4492 14.3523Z" fill="#D0D0D0"/>
</svg>
