<svg width="24" height="24" viewBox="0 0 24 24" fill="none" xmlns="http://www.w3.org/2000/svg">
<path d="M3 5V19H21" stroke="#8A8A8A" stroke-width="1.7" stroke-linecap="round" stroke-linejoin="round"/>
<path d="M6 15L9 11L12 13L17 6L19 8" stroke="#8A8A8A" stroke-width="1.7" stroke-linecap="round" stroke-linejoin="round"/>
<path d="M9 12C9.55228 12 10 11.5523 10 11C10 10.4477 9.55228 10 9 10C8.44772 10 8 10.4477 8 11C8 11.5523 8.44772 12 9 12Z" stroke="#8A8A8A" stroke-width="1.7" stroke-linecap="round" stroke-linejoin="round"/>
<path d="M17 7C17.5523 7 18 6.55228 18 6C18 5.44772 17.5523 5 17 5C16.4477 5 16 5.44772 16 6C16 6.55228 16.4477 7 17 7Z" stroke="#8A8A8A" stroke-width="1.7" stroke-linecap="round" stroke-linejoin="round"/>
</svg>
